<svg width="180.000000" height="180.000000" viewBox="0 0 180 180" fill="none" xmlns="http://www.w3.org/2000/svg" xmlns:xlink="http://www.w3.org/1999/xlink">
	<desc>
			Created with Pixso.
	</desc>
	<defs>
		<clipPath id="clip3608_7952">
			<rect id="leaf" width="150.000000" height="150.000000" transform="translate(29.998047 55.269531)" fill="white" fill-opacity="0"/>
		</clipPath>
	</defs>
	<circle id="Ellipse 140" cx="90.000000" cy="90.000000" r="90.000000" fill="#748C70" fill-opacity="1.000000"/>
	<path id="Intersect" d="M59.1641 174.578Q60.0439 170.621 61.2119 166.906Q55.8486 160.441 53.292 153.012Q52.9316 151.965 52.6279 150.898Q50.9111 144.891 50.9111 136.508Q50.9668 116.695 60.2139 103.168Q63.7861 97.9414 68.7295 93.6523Q88.7695 76.2695 129.911 76.2695L154.999 76.2695Q156.655 76.2695 157.827 77.4414Q158.999 78.6133 158.999 80.2695L158.999 92.7695Q158.999 92.8281 158.997 92.8828Q158.995 92.9414 158.992 93Q156.386 138.414 132.605 157.645Q115.139 171.77 86.249 171.77L68.1367 171.77Q67.415 174.32 66.8369 176.992C64.2305 176.297 61.6719 175.492 59.1641 174.578ZM70.8721 163.77L86.249 163.77Q111.415 163.77 126.846 151.512Q148.583 134.246 150.999 92.6523L150.999 84.2695L129.911 84.2695Q83.9951 84.2695 67.7725 106.219Q58.9629 118.137 58.9111 136.531Q58.9111 143.773 60.3193 148.703Q60.376 148.898 60.4355 149.098Q61.8281 153.754 64.5781 158.004Q68.666 148.863 74.8213 141.434Q85.8066 128.172 103.374 120.363C105.421 119.453 107.744 120.348 108.653 122.395C109.563 124.441 108.67 126.766 106.623 127.676Q91.1396 134.555 81.3486 146.219Q74.8604 153.945 70.8721 163.77Z" clip-rule="evenodd" fill="#FFFFFF" fill-opacity="1.000000" fill-rule="evenodd"/>
</svg>
